<svg xmlns="http://www.w3.org/2000/svg" viewBox="0 0 3320.6 1108.44"><g id="Camada_2" data-name="Camada 2"><g id="Camada_1-2" data-name="Camada 1"><path d="M786.22,793V529.41q0-8.91,3.83-20.37,25.49-78.92,187.33-78.93H1385.2v97.66H1029.64c-3.85.32-8,1.63-12.74,2.54q-33.15,6.39-33.14,26.77v51l345.47-3.9q-.39,51.44-.79,102.89l-344.68.42v51q0,28,51,30.58H1385.2v99.41H1005.43Q786.21,888.43,786.22,793Z" style="fill:#040505"/><path d="M1415.12,430.11h461.33q189.9,0,189.9,92.88v91.6q0,44.53-56.08,70-39.51,17.84-94.31,21.63-21.68,1.29-34.4,1.28L1851,706.19l224.31,182.24H1842.06L1634.32,717.66l-.6-93.82,103.82-.49h80.29q52.25,0,52.26-25.48V555.8q0-22.92-48.44-26.75-3.84-1.27-12.73-1.28H1612.66V888.43H1415.12Z" style="fill:#040505"/><path d="M2081.49,528.13a65,65,0,0,1,5.1-24.17q31.86-73.84,202.63-73.85h233.22q205.16,0,205.17,98v261q0,99.3-206.45,99.3H2289.22q-94.32,0-140.19-17.19t-61.17-57.92q-5.09-12.72-5.09-22.91ZM2279,559.62l1.28,197.54q0,31.88,65,31.86h121.08q65,0,65-28V559.62q0-31.85-65-31.85H2345.3Q2279,527.77,2279,559.62Z" style="fill:#040505"/><path d="M213.82,92.05a2816.51,2816.51,0,0,0,412.46,47.87,2824.8,2824.8,0,0,0,632-44.9,6040,6040,0,0,0-523.67,418c-136,121.47-258.1,241.67-367.33,357.34L564.52,754.77l190.15-7a226.09,226.09,0,0,0-1,25c.24,18.73.49,37.9,9.06,57.5,8.79,20.08,22.55,32,28.27,36.82,36,30.5,83.95,30.4,78.9,30.76A2708.82,2708.82,0,0,0,0,1108.44,4001.91,4001.91,0,0,1,704,341.58c.78-2.49,3.93-13.43-1.81-24.23-5.91-11.13-18.85-17.63-32.73-16.37L319.88,317.35a609.26,609.26,0,0,1-55.05-87.57A609.13,609.13,0,0,1,213.82,92.05Z" style="fill:#040505"/><text transform="translate(660.37 1039.6)" style="font-size:201.7808380126953px;fill:#040505;font-family:Xscale, xscale">SOLUÇÕES TECNOLÓGICAS</text><path d="M2658,528q190.58-176.16,395.33-334Q3184.05,93.29,3320.6,0c-8.86,48.08-21.9,120.49-36.62,208.72-68.55,410.95-67.83,548-172.1,626.14-32.14,24.1-93.44,33.15-216,51.27-297.65,44-555.55,21.23-555.54,21.23l17.38.29c159.33,2.65,344.39-30.52,344.39-30.52,72.57-13,96.21-21.18,120.54-34.94,0,0,47-25.61,85.92-76.84,94.14-124,125.2-423,126.46-435.8Z" style="fill:#040505"/></g></g></svg>